<svg width="16" height="16" viewBox="0 0 16 16" fill="none" xmlns="http://www.w3.org/2000/svg">
<path d="M15.4997 2.82C14.8297 1.445 12.8997 0.320005 10.6547 0.975005C9.58192 1.28487 8.64595 1.9494 7.99969 2.86C7.35343 1.9494 6.41746 1.28487 5.34469 0.975005C3.09469 0.330005 1.16969 1.445 0.499689 2.82C-0.440311 4.745 -0.0503105 6.91 1.65969 9.255C2.99969 11.09 4.91469 12.95 7.69469 15.11C7.78254 15.1785 7.89077 15.2157 8.00219 15.2157C8.11361 15.2157 8.22183 15.1785 8.30969 15.11C11.0847 12.955 13.0047 11.11 14.3447 9.255C16.0497 6.91 16.4397 4.745 15.4997 2.82Z" fill="url(#paint0_linear_111_268)"/>
<defs>
<linearGradient id="paint0_linear_111_268" x1="-3.45797" y1="-8.23689" x2="19.9073" y2="-2.50315" gradientUnits="userSpaceOnUse">
<stop stop-color="#976464"/>
<stop offset="1" stop-color="#CFA5A5"/>
</linearGradient>
</defs>
</svg>
